<svg width="512" height="512" viewBox="0 0 512 512" fill="none" xmlns="http://www.w3.org/2000/svg">
  <rect width="512" height="512" rx="16" fill="#f9700e"/>
  <path d="M248.82 367.63L248.82 367.63Q241.46 367.63 232.45 366.16Q223.43 364.69 215.52 362.48Q207.61 360.27 203.19 357.70L203.19 357.70Q200.62 356.22 199.33 354.57Q198.04 352.91 198.04 348.86L198.04 348.86L196.20 291.09Q196.20 283.73 200.98 283.73L200.98 283.73Q205.03 283.73 206.50 290.35L206.50 290.35L209.82 304.34Q222.33 356.96 256.55 356.96L256.55 356.96Q274.95 356.96 285.81 344.63Q296.66 332.30 296.66 309.86L296.66 309.86Q296.66 288.14 285.44 269.38Q274.22 250.61 249.56 232.21L249.56 232.21Q222.33 212.70 209.82 194.49Q197.30 176.27 197.30 155.66L197.30 155.66Q197.30 128.43 216.26 112.06Q235.21 95.68 264.65 95.68L264.65 95.68Q275.69 95.68 285.99 98.26Q296.30 100.83 302.92 105.62L302.92 105.62Q305.13 107.09 306.42 108.93Q307.70 110.77 307.70 113.71L307.70 113.71L308.81 169.28Q308.81 175.54 304.02 175.54L304.02 175.54Q300.71 175.54 299.24 170.38L299.24 170.38L296.66 161.18Q288.57 132.85 279.92 119.78Q271.27 106.72 255.08 106.72L255.08 106.72Q239.26 106.72 229.87 117.02Q220.49 127.33 220.49 146.10L220.49 146.10Q220.49 161.92 230.79 176.27Q241.10 190.62 266.86 211.23L266.86 211.23Q294.46 233.68 307.15 254.47Q319.85 275.26 319.85 298.82L319.85 298.82Q319.85 319.42 310.65 334.88Q301.45 350.34 285.44 358.98Q269.43 367.63 248.82 367.63Z" transform="translate(0, 13.680000000000007)" fill="#0a0a0a"/>
</svg>