<svg width="164" height="36" viewBox="0 0 164 36" fill="none" xmlns="http://www.w3.org/2000/svg">
  <path d="M5.70 30.97L5.70 30.97Q5.08 30.97 4.32 30.85Q3.56 30.72 2.90 30.54Q2.23 30.35 1.86 30.13L1.86 30.13Q1.64 30.01 1.53 29.87Q1.43 29.73 1.43 29.39L1.43 29.39L1.27 24.52Q1.27 23.90 1.67 23.90L1.67 23.90Q2.02 23.90 2.14 24.46L2.14 24.46L2.42 25.64Q3.47 30.07 6.35 30.07L6.35 30.07Q7.91 30.07 8.82 29.03Q9.73 27.99 9.73 26.10L9.73 26.10Q9.73 24.27 8.79 22.69Q7.84 21.11 5.77 19.56L5.77 19.56Q3.47 17.92 2.42 16.38Q1.36 14.85 1.36 13.11L1.36 13.11Q1.36 10.82 2.96 9.44Q4.56 8.06 7.04 8.06L7.04 8.06Q7.97 8.06 8.83 8.28Q9.70 8.49 10.26 8.90L10.26 8.90Q10.45 9.02 10.56 9.18Q10.66 9.33 10.66 9.58L10.66 9.58L10.76 14.26Q10.76 14.79 10.35 14.79L10.35 14.79Q10.07 14.79 9.95 14.35L9.95 14.35L9.73 13.58Q9.05 11.19 8.32 10.09Q7.59 8.99 6.23 8.99L6.23 8.99Q4.90 8.99 4.11 9.86Q3.32 10.73 3.32 12.31L3.32 12.31Q3.32 13.64 4.18 14.85Q5.05 16.06 7.22 17.79L7.22 17.79Q9.55 19.69 10.62 21.44Q11.69 23.19 11.69 25.17L11.69 25.17Q11.69 26.91 10.91 28.21Q10.14 29.51 8.79 30.24Q7.44 30.97 5.70 30.97ZM16.15 11.94L16.15 11.94Q15.50 11.94 15.05 11.47Q14.60 11.01 14.60 10.29L14.60 10.29Q14.60 9.58 15.05 9.13Q15.50 8.68 16.15 8.68L16.15 8.68Q16.80 8.68 17.24 9.13Q17.67 9.58 17.67 10.29L17.67 10.29Q17.67 11.01 17.24 11.47Q16.80 11.94 16.15 11.94ZM18.72 30.69L13.55 30.69Q13.08 30.69 13.08 30.35L13.08 30.35Q13.08 30.07 13.48 29.98L13.48 29.98L13.86 29.92Q14.63 29.79 14.85 29.53Q15.07 29.26 15.07 28.61L15.07 28.61L15.07 18.20Q15.07 17.64 14.90 17.44Q14.72 17.24 14.29 17.17L14.29 17.17L13.64 17.08Q13.24 17.05 13.24 16.74L13.24 16.74Q13.24 16.49 13.73 16.40L13.73 16.40Q14.69 16.24 15.28 15.90Q15.87 15.56 16.43 15.07L16.43 15.07Q16.71 14.79 16.89 14.79L16.89 14.79Q17.17 14.79 17.17 15.16L17.17 15.16L17.17 28.61Q17.17 29.26 17.36 29.54Q17.55 29.82 18.07 29.88L18.07 29.88L18.85 29.98Q19.19 30.04 19.19 30.32L19.19 30.32Q19.19 30.69 18.72 30.69L18.72 30.69ZM25.70 30.69L20.46 30.69Q20.00 30.69 20.00 30.35L20.00 30.35Q20.00 30.07 20.40 29.98L20.40 29.98L20.77 29.92Q21.42 29.79 21.62 29.53Q21.82 29.26 21.82 28.61L21.82 28.61L21.82 18.20Q21.82 17.64 21.65 17.44Q21.48 17.24 21.05 17.17L21.05 17.17L20.40 17.08Q20.00 17.05 20.00 16.74L20.00 16.74Q20.00 16.49 20.49 16.40L20.49 16.40Q21.45 16.24 21.96 15.90Q22.48 15.56 23.03 15.07L23.03 15.07Q23.31 14.79 23.50 14.79L23.50 14.79Q23.78 14.79 23.78 15.16L23.78 15.16L23.78 16.55Q23.78 16.77 23.96 16.88Q24.15 16.99 24.37 16.77L24.37 16.77Q25.64 15.56 26.58 15.13Q27.53 14.69 28.49 14.69L28.49 14.69Q29.39 14.69 30.09 15.17Q30.78 15.66 31.12 16.62L31.12 16.62Q31.22 16.86 31.45 16.91Q31.68 16.96 31.90 16.74L31.90 16.74Q33.17 15.56 34.10 15.13Q35.03 14.69 35.99 14.69L35.99 14.69Q37.29 14.69 38.11 15.67Q38.94 16.65 38.94 18.54L38.94 18.54L38.94 28.61Q38.94 29.26 39.14 29.53Q39.34 29.79 39.99 29.88L39.99 29.88L40.67 29.98Q41.01 30.04 41.01 30.35L41.01 30.35Q41.01 30.69 40.64 30.69L40.64 30.69L35.34 30.69Q34.91 30.69 34.91 30.35L34.91 30.35Q34.91 30.04 35.25 29.98L35.25 29.98L35.68 29.92Q36.39 29.82 36.61 29.54Q36.83 29.26 36.83 28.61L36.83 28.61L36.83 18.88Q36.83 17.36 36.29 16.74Q35.74 16.12 34.81 16.12L34.81 16.12Q33.88 16.12 33.12 16.69Q32.36 17.27 31.90 18.21Q31.43 19.16 31.43 20.30L31.43 20.30L31.43 28.61Q31.43 29.26 31.65 29.53Q31.87 29.79 32.55 29.88L32.55 29.88L33.23 29.98Q33.57 30.04 33.57 30.35L33.57 30.35Q33.57 30.69 33.20 30.69L33.20 30.69L27.93 30.69Q27.50 30.69 27.50 30.35L27.50 30.35Q27.50 30.04 27.84 29.98L27.84 29.98L28.27 29.92Q28.92 29.82 29.12 29.54Q29.33 29.26 29.33 28.61L29.33 28.61L29.33 18.88Q29.33 17.36 28.78 16.74Q28.24 16.12 27.31 16.12L27.31 16.12Q26.38 16.12 25.62 16.69Q24.86 17.27 24.40 18.21Q23.93 19.16 23.93 20.30L23.93 20.30L23.93 28.61Q23.93 29.26 24.13 29.54Q24.34 29.82 24.99 29.88L24.99 29.88L25.82 29.98Q26.16 30.04 26.16 30.32L26.16 30.32Q26.16 30.69 25.70 30.69L25.70 30.69ZM46.66 30.97L46.66 30.97Q45.88 30.97 45.17 30.63Q44.45 30.29 43.99 29.54Q43.52 28.80 43.52 27.56L43.52 27.56L43.52 16.77Q43.52 16.21 43.35 16.00Q43.18 15.78 42.75 15.75L42.75 15.75L42.22 15.69Q41.70 15.62 41.70 15.28L41.70 15.28Q41.70 14.88 42.28 14.88L42.28 14.88L45.17 14.88Q45.63 14.88 45.63 15.35L45.63 15.35L45.63 26.91Q45.63 28.33 46.17 28.94Q46.72 29.54 47.68 29.54L47.68 29.54Q48.64 29.54 49.38 29.00Q50.13 28.46 50.58 27.54Q51.03 26.63 51.03 25.54L51.03 25.54L51.03 16.77Q51.03 16.21 50.86 16.00Q50.69 15.78 50.25 15.75L50.25 15.75L49.72 15.69Q49.20 15.62 49.20 15.28L49.20 15.28Q49.20 14.88 49.79 14.88L49.79 14.88L52.67 14.88Q53.13 14.88 53.13 15.35L53.13 15.35L53.13 27.37Q53.13 27.93 53.30 28.13Q53.48 28.33 53.91 28.40L53.91 28.40L54.56 28.49Q54.96 28.52 54.96 28.80L54.96 28.80Q54.96 29.08 54.47 29.17L54.47 29.17Q53.51 29.30 52.93 29.67Q52.36 30.04 51.92 30.57L51.92 30.57Q51.65 30.85 51.46 30.85L51.46 30.85Q51.18 30.85 51.18 30.47L51.18 30.47L51.18 29.05Q51.18 28.80 51.01 28.75Q50.84 28.71 50.65 28.89L50.65 28.89Q49.51 30.04 48.62 30.50Q47.74 30.97 46.66 30.97ZM61.57 30.69L56.05 30.69Q55.68 30.69 55.68 30.35L55.68 30.35Q55.68 30.04 56.02 29.98L56.02 29.98L56.45 29.92Q57.10 29.82 57.41 29.54Q57.72 29.26 57.72 28.61L57.72 28.61L57.72 10.85Q57.72 10.29 57.55 10.08Q57.38 9.86 56.95 9.83L56.95 9.83L56.23 9.73Q55.89 9.67 55.89 9.36L55.89 9.36Q55.89 9.05 56.23 8.99L56.23 8.99Q57.10 8.80 57.72 8.56Q58.34 8.31 58.74 8.06L58.74 8.06Q59.24 7.75 59.49 7.75L59.49 7.75Q59.83 7.75 59.83 8.25L59.83 8.25L59.83 28.61Q59.83 29.26 60.03 29.53Q60.23 29.79 60.88 29.88L60.88 29.88L61.60 29.98Q61.94 30.04 61.94 30.35L61.94 30.35Q61.94 30.69 61.57 30.69L61.57 30.69ZM65.97 30.97L65.97 30.97Q64.67 30.97 63.83 30.15Q62.99 29.33 62.99 27.96L62.99 27.96Q62.99 26.63 63.83 25.44Q64.67 24.24 66.12 23.28Q67.58 22.32 69.44 21.73L69.44 21.73Q69.84 21.61 69.84 21.20L69.84 21.20L69.84 18.38Q69.84 16.90 69.38 16.26Q68.91 15.62 68.11 15.62L68.11 15.62Q67.33 15.62 66.70 16.32Q66.06 17.02 65.78 18.66L65.78 18.66Q65.63 19.65 65.12 20.10Q64.60 20.55 64.08 20.55L64.08 20.55Q63.21 20.55 63.21 19.69L63.21 19.69Q63.21 18.79 63.72 17.90Q64.23 17.02 65.07 16.29Q65.91 15.56 66.90 15.13Q67.89 14.69 68.88 14.69L68.88 14.69Q71.95 14.69 71.95 18.26L71.95 18.26L71.95 27.75Q71.95 29.05 72.60 29.05L72.60 29.05Q73.00 29.05 73.35 28.50Q73.69 27.96 73.69 26.66L73.69 26.66Q73.69 26.16 74.09 26.16L74.09 26.16Q74.46 26.16 74.46 26.69L74.46 26.69Q74.46 28.95 73.67 29.96Q72.88 30.97 71.89 30.97L71.89 30.97Q71.14 30.97 70.71 30.36Q70.28 29.76 70.12 28.92L70.12 28.92Q70.09 28.61 69.86 28.60Q69.63 28.58 69.41 28.89L69.41 28.89Q68.66 29.92 67.89 30.44Q67.11 30.97 65.97 30.97ZM66.80 29.54L66.80 29.54Q67.61 29.54 68.29 28.97Q68.97 28.40 69.41 27.44Q69.84 26.47 69.84 25.27L69.84 25.27L69.84 23.00Q69.84 22.41 69.19 22.66L69.19 22.66Q67.30 23.34 66.26 24.54Q65.22 25.73 65.22 27.40L65.22 27.40Q65.22 29.54 66.80 29.54ZM80.79 30.69L75.55 30.69Q75.08 30.69 75.08 30.35L75.08 30.35Q75.08 30.07 75.48 29.98L75.48 29.98L75.86 29.92Q76.51 29.79 76.71 29.53Q76.91 29.26 76.91 28.61L76.91 28.61L76.91 18.20Q76.91 17.64 76.74 17.44Q76.57 17.24 76.14 17.17L76.14 17.17L75.48 17.08Q75.08 17.05 75.08 16.74L75.08 16.74Q75.08 16.49 75.58 16.40L75.58 16.40Q76.54 16.24 77.05 15.90Q77.56 15.56 78.12 15.07L78.12 15.07Q78.40 14.79 78.58 14.79L78.58 14.79Q78.86 14.79 78.86 15.16L78.86 15.16L78.86 16.55Q78.86 16.83 79.07 16.91Q79.27 16.99 79.51 16.74L79.51 16.74Q80.75 15.56 81.70 15.13Q82.65 14.69 83.70 14.69L83.70 14.69Q85.09 14.69 85.93 15.67Q86.77 16.65 86.77 18.54L86.77 18.54L86.77 28.61Q86.77 29.26 86.97 29.53Q87.17 29.79 87.82 29.88L87.82 29.88L88.50 29.98Q88.85 30.04 88.85 30.35L88.85 30.35Q88.85 30.69 88.47 30.69L88.47 30.69L83.27 30.69Q82.83 30.69 82.83 30.35L82.83 30.35Q82.83 30.04 83.17 29.98L83.17 29.98L83.61 29.92Q84.26 29.82 84.46 29.54Q84.66 29.26 84.66 28.61L84.66 28.61L84.66 18.88Q84.66 17.36 84.10 16.74Q83.54 16.12 82.52 16.12L82.52 16.12Q81.53 16.12 80.74 16.69Q79.95 17.27 79.48 18.21Q79.02 19.16 79.02 20.30L79.02 20.30L79.02 28.61Q79.02 29.26 79.22 29.54Q79.42 29.82 80.07 29.88L80.07 29.88L80.91 29.98Q81.25 30.04 81.25 30.32L81.25 30.32Q81.25 30.69 80.79 30.69L80.79 30.69ZM93.74 30.97L93.74 30.97Q92.66 30.97 91.96 30.21Q91.26 29.45 91.26 27.71L91.26 27.71L91.26 16.12Q91.26 15.75 90.89 15.75L90.89 15.75L89.99 15.75Q89.50 15.75 89.50 15.38L89.50 15.38Q89.50 15.13 89.78 14.94L89.78 14.94Q90.80 14.23 91.42 13.41Q92.04 12.59 92.50 11.16L92.50 11.16Q92.72 10.51 93.03 10.51L93.03 10.51Q93.37 10.51 93.37 11.01L93.37 11.01L93.37 14.45Q93.37 14.88 93.81 14.88L93.81 14.88L95.82 14.88Q96.32 14.88 96.32 15.31L96.32 15.31Q96.32 15.75 95.82 15.75L95.82 15.75L93.81 15.75Q93.37 15.75 93.37 16.18L93.37 16.18L93.37 27.75Q93.37 28.43 93.59 28.81Q93.81 29.20 94.39 29.20L94.39 29.20Q95.05 29.20 95.46 28.55Q95.88 27.90 96.01 26.44L96.01 26.44Q96.07 26.01 96.41 26.01L96.41 26.01Q96.78 26.01 96.78 26.47L96.78 26.47Q96.69 28.86 95.81 29.92Q94.92 30.97 93.74 30.97Z" transform="translate(0, -3.6900000000000013)" fill="#0a0a0a"/>
</svg>